<mxfile host="app.diagrams.net" modified="2024-05-17T14:02:52.358Z" agent="Mozilla/5.0 (X11; Linux x86_64; rv:125.0) Gecko/20100101 Firefox/125.0" etag="2nSW4o817esXdNtLQS4L" version="24.4.0" type="device">
  <diagram name="Page-1" id="nQDEeKBXd8hTK1AMAenw">
    <mxGraphModel dx="1687" dy="892" grid="1" gridSize="10" guides="1" tooltips="1" connect="1" arrows="1" fold="1" page="1" pageScale="1" pageWidth="850" pageHeight="1100" math="0" shadow="0">
      <root>
        <mxCell id="0" />
        <mxCell id="1" parent="0" />
        <mxCell id="kn-Yck2s75ZK4QcH-fP1-1" value="" style="ellipse;html=1;shape=startState;fillColor=#000000;strokeColor=#ff0000;" vertex="1" parent="1">
          <mxGeometry x="410" y="30" width="30" height="30" as="geometry" />
        </mxCell>
        <mxCell id="kn-Yck2s75ZK4QcH-fP1-2" value="" style="edgeStyle=orthogonalEdgeStyle;html=1;verticalAlign=bottom;endArrow=open;endSize=8;strokeColor=#ff0000;rounded=0;" edge="1" source="kn-Yck2s75ZK4QcH-fP1-1" parent="1">
          <mxGeometry relative="1" as="geometry">
            <mxPoint x="425" y="120" as="targetPoint" />
          </mxGeometry>
        </mxCell>
        <mxCell id="kn-Yck2s75ZK4QcH-fP1-6" value="&lt;div&gt;StartGame&lt;/div&gt;" style="swimlane;fontStyle=0;childLayout=stackLayout;horizontal=1;startSize=30;horizontalStack=0;resizeParent=1;resizeParentMax=0;resizeLast=0;collapsible=1;marginBottom=0;whiteSpace=wrap;html=1;" vertex="1" parent="1">
          <mxGeometry x="355" y="120" width="140" height="90" as="geometry" />
        </mxCell>
        <mxCell id="kn-Yck2s75ZK4QcH-fP1-7" value="do: Camera centered on player &amp;amp; entities spawn" style="text;strokeColor=none;fillColor=none;align=left;verticalAlign=middle;spacingLeft=4;spacingRight=4;overflow=hidden;points=[[0,0.5],[1,0.5]];portConstraint=eastwest;rotatable=0;whiteSpace=wrap;html=1;" vertex="1" parent="kn-Yck2s75ZK4QcH-fP1-6">
          <mxGeometry y="30" width="140" height="30" as="geometry" />
        </mxCell>
        <mxCell id="kn-Yck2s75ZK4QcH-fP1-8" value="exit: player moves forward" style="text;strokeColor=none;fillColor=none;align=left;verticalAlign=middle;spacingLeft=4;spacingRight=4;overflow=hidden;points=[[0,0.5],[1,0.5]];portConstraint=eastwest;rotatable=0;whiteSpace=wrap;html=1;" vertex="1" parent="kn-Yck2s75ZK4QcH-fP1-6">
          <mxGeometry y="60" width="140" height="30" as="geometry" />
        </mxCell>
        <mxCell id="kn-Yck2s75ZK4QcH-fP1-22" style="edgeStyle=orthogonalEdgeStyle;rounded=0;orthogonalLoop=1;jettySize=auto;html=1;exitX=0.5;exitY=1;exitDx=0;exitDy=0;entryX=0.5;entryY=0;entryDx=0;entryDy=0;" edge="1" parent="1" source="kn-Yck2s75ZK4QcH-fP1-10" target="kn-Yck2s75ZK4QcH-fP1-21">
          <mxGeometry relative="1" as="geometry" />
        </mxCell>
        <mxCell id="kn-Yck2s75ZK4QcH-fP1-10" value="Camera Moves Forward" style="swimlane;fontStyle=0;childLayout=stackLayout;horizontal=1;startSize=30;horizontalStack=0;resizeParent=1;resizeParentMax=0;resizeLast=0;collapsible=1;marginBottom=0;whiteSpace=wrap;html=1;" vertex="1" parent="1">
          <mxGeometry x="235" y="300" width="140" height="60" as="geometry" />
        </mxCell>
        <mxCell id="kn-Yck2s75ZK4QcH-fP1-11" value="do: Move camera" style="text;strokeColor=none;fillColor=none;align=left;verticalAlign=middle;spacingLeft=4;spacingRight=4;overflow=hidden;points=[[0,0.5],[1,0.5]];portConstraint=eastwest;rotatable=0;whiteSpace=wrap;html=1;" vertex="1" parent="kn-Yck2s75ZK4QcH-fP1-10">
          <mxGeometry y="30" width="140" height="30" as="geometry" />
        </mxCell>
        <mxCell id="kn-Yck2s75ZK4QcH-fP1-14" value="" style="shape=umlDestroy;whiteSpace=wrap;html=1;strokeWidth=3;targetShapes=umlLifeline;" vertex="1" parent="1">
          <mxGeometry x="10" y="520" width="30" height="30" as="geometry" />
        </mxCell>
        <mxCell id="kn-Yck2s75ZK4QcH-fP1-15" style="edgeStyle=orthogonalEdgeStyle;rounded=0;orthogonalLoop=1;jettySize=auto;html=1;exitX=0;exitY=0.5;exitDx=0;exitDy=0;entryX=0.567;entryY=0.433;entryDx=0;entryDy=0;entryPerimeter=0;" edge="1" parent="1" source="kn-Yck2s75ZK4QcH-fP1-17" target="kn-Yck2s75ZK4QcH-fP1-14">
          <mxGeometry relative="1" as="geometry">
            <Array as="points">
              <mxPoint x="117" y="530" />
            </Array>
          </mxGeometry>
        </mxCell>
        <mxCell id="kn-Yck2s75ZK4QcH-fP1-16" style="edgeStyle=orthogonalEdgeStyle;rounded=0;orthogonalLoop=1;jettySize=auto;html=1;" edge="1" parent="1" source="kn-Yck2s75ZK4QcH-fP1-8" target="kn-Yck2s75ZK4QcH-fP1-10">
          <mxGeometry relative="1" as="geometry">
            <Array as="points">
              <mxPoint x="425" y="230" />
              <mxPoint x="425" y="230" />
            </Array>
          </mxGeometry>
        </mxCell>
        <mxCell id="kn-Yck2s75ZK4QcH-fP1-17" value="Player Dies" style="swimlane;fontStyle=0;childLayout=stackLayout;horizontal=1;startSize=30;horizontalStack=0;resizeParent=1;resizeParentMax=0;resizeLast=0;collapsible=1;marginBottom=0;whiteSpace=wrap;html=1;" vertex="1" parent="1">
          <mxGeometry x="110" y="505" width="140" height="60" as="geometry" />
        </mxCell>
        <mxCell id="kn-Yck2s75ZK4QcH-fP1-18" value="do: Show gameover screen" style="text;strokeColor=none;fillColor=none;align=left;verticalAlign=middle;spacingLeft=4;spacingRight=4;overflow=hidden;points=[[0,0.5],[1,0.5]];portConstraint=eastwest;rotatable=0;whiteSpace=wrap;html=1;" vertex="1" parent="kn-Yck2s75ZK4QcH-fP1-17">
          <mxGeometry y="30" width="140" height="30" as="geometry" />
        </mxCell>
        <mxCell id="kn-Yck2s75ZK4QcH-fP1-23" style="edgeStyle=orthogonalEdgeStyle;rounded=0;orthogonalLoop=1;jettySize=auto;html=1;exitX=0;exitY=0.5;exitDx=0;exitDy=0;entryX=0.5;entryY=0;entryDx=0;entryDy=0;" edge="1" parent="1" source="kn-Yck2s75ZK4QcH-fP1-21" target="kn-Yck2s75ZK4QcH-fP1-17">
          <mxGeometry relative="1" as="geometry" />
        </mxCell>
        <mxCell id="kn-Yck2s75ZK4QcH-fP1-30" style="edgeStyle=orthogonalEdgeStyle;rounded=0;orthogonalLoop=1;jettySize=auto;html=1;exitX=1;exitY=0.5;exitDx=0;exitDy=0;entryX=0.5;entryY=0;entryDx=0;entryDy=0;" edge="1" parent="1" source="kn-Yck2s75ZK4QcH-fP1-21" target="kn-Yck2s75ZK4QcH-fP1-26">
          <mxGeometry relative="1" as="geometry" />
        </mxCell>
        <mxCell id="kn-Yck2s75ZK4QcH-fP1-21" value="" style="rhombus;whiteSpace=wrap;html=1;" vertex="1" parent="1">
          <mxGeometry x="290" y="430" width="30" height="30" as="geometry" />
        </mxCell>
        <mxCell id="kn-Yck2s75ZK4QcH-fP1-24" value="Camera overtakes player" style="text;html=1;align=center;verticalAlign=middle;resizable=0;points=[];autosize=1;strokeColor=none;fillColor=none;" vertex="1" parent="1">
          <mxGeometry x="100" y="420" width="160" height="30" as="geometry" />
        </mxCell>
        <mxCell id="kn-Yck2s75ZK4QcH-fP1-33" style="edgeStyle=orthogonalEdgeStyle;rounded=0;orthogonalLoop=1;jettySize=auto;html=1;exitX=0.5;exitY=1;exitDx=0;exitDy=0;entryX=0.5;entryY=0;entryDx=0;entryDy=0;" edge="1" parent="1" source="kn-Yck2s75ZK4QcH-fP1-26" target="kn-Yck2s75ZK4QcH-fP1-58">
          <mxGeometry relative="1" as="geometry" />
        </mxCell>
        <mxCell id="kn-Yck2s75ZK4QcH-fP1-26" value="Keep playing" style="swimlane;fontStyle=0;childLayout=stackLayout;horizontal=1;startSize=30;horizontalStack=0;resizeParent=1;resizeParentMax=0;resizeLast=0;collapsible=1;marginBottom=0;whiteSpace=wrap;html=1;" vertex="1" parent="1">
          <mxGeometry x="400" y="470" width="140" height="90" as="geometry" />
        </mxCell>
        <mxCell id="kn-Yck2s75ZK4QcH-fP1-64" value="do: kill objects when they leave the terrain prefab" style="text;strokeColor=none;fillColor=none;align=left;verticalAlign=middle;spacingLeft=4;spacingRight=4;overflow=hidden;points=[[0,0.5],[1,0.5]];portConstraint=eastwest;rotatable=0;whiteSpace=wrap;html=1;" vertex="1" parent="kn-Yck2s75ZK4QcH-fP1-26">
          <mxGeometry y="30" width="140" height="60" as="geometry" />
        </mxCell>
        <mxCell id="kn-Yck2s75ZK4QcH-fP1-31" value="Player stays in camera screen" style="text;html=1;align=center;verticalAlign=middle;resizable=0;points=[];autosize=1;strokeColor=none;fillColor=none;" vertex="1" parent="1">
          <mxGeometry x="510" y="450" width="180" height="30" as="geometry" />
        </mxCell>
        <mxCell id="kn-Yck2s75ZK4QcH-fP1-38" style="edgeStyle=orthogonalEdgeStyle;rounded=0;orthogonalLoop=1;jettySize=auto;html=1;exitX=0;exitY=0.5;exitDx=0;exitDy=0;entryX=0.786;entryY=1.2;entryDx=0;entryDy=0;entryPerimeter=0;" edge="1" parent="1" source="kn-Yck2s75ZK4QcH-fP1-32" target="kn-Yck2s75ZK4QcH-fP1-18">
          <mxGeometry relative="1" as="geometry">
            <mxPoint x="360" y="570" as="targetPoint" />
            <Array as="points">
              <mxPoint x="455" y="850" />
              <mxPoint x="220" y="850" />
            </Array>
          </mxGeometry>
        </mxCell>
        <mxCell id="kn-Yck2s75ZK4QcH-fP1-44" style="edgeStyle=orthogonalEdgeStyle;rounded=0;orthogonalLoop=1;jettySize=auto;html=1;exitX=1;exitY=0.5;exitDx=0;exitDy=0;entryX=0;entryY=0.5;entryDx=0;entryDy=0;" edge="1" parent="1" source="kn-Yck2s75ZK4QcH-fP1-32" target="kn-Yck2s75ZK4QcH-fP1-40">
          <mxGeometry relative="1" as="geometry">
            <Array as="points">
              <mxPoint x="485" y="850" />
              <mxPoint x="700" y="850" />
              <mxPoint x="700" y="910" />
            </Array>
          </mxGeometry>
        </mxCell>
        <mxCell id="kn-Yck2s75ZK4QcH-fP1-54" style="edgeStyle=orthogonalEdgeStyle;rounded=0;orthogonalLoop=1;jettySize=auto;html=1;exitX=0.5;exitY=1;exitDx=0;exitDy=0;" edge="1" parent="1" source="kn-Yck2s75ZK4QcH-fP1-32" target="kn-Yck2s75ZK4QcH-fP1-50">
          <mxGeometry relative="1" as="geometry" />
        </mxCell>
        <mxCell id="kn-Yck2s75ZK4QcH-fP1-32" value="" style="rhombus;whiteSpace=wrap;html=1;" vertex="1" parent="1">
          <mxGeometry x="455" y="840" width="30" height="30" as="geometry" />
        </mxCell>
        <mxCell id="kn-Yck2s75ZK4QcH-fP1-39" value="collision with evil object" style="text;html=1;align=center;verticalAlign=middle;resizable=0;points=[];autosize=1;strokeColor=none;fillColor=none;" vertex="1" parent="1">
          <mxGeometry x="270" y="820" width="150" height="30" as="geometry" />
        </mxCell>
        <mxCell id="kn-Yck2s75ZK4QcH-fP1-45" style="edgeStyle=orthogonalEdgeStyle;rounded=0;orthogonalLoop=1;jettySize=auto;html=1;exitX=1;exitY=0.5;exitDx=0;exitDy=0;entryX=1;entryY=0.75;entryDx=0;entryDy=0;" edge="1" parent="1" source="kn-Yck2s75ZK4QcH-fP1-40" target="kn-Yck2s75ZK4QcH-fP1-26">
          <mxGeometry relative="1" as="geometry">
            <mxPoint x="540" y="565" as="targetPoint" />
            <Array as="points">
              <mxPoint x="760" y="910" />
              <mxPoint x="760" y="560" />
              <mxPoint x="570" y="560" />
              <mxPoint x="570" y="535" />
            </Array>
          </mxGeometry>
        </mxCell>
        <mxCell id="kn-Yck2s75ZK4QcH-fP1-40" value="Player cannot move in direction" style="swimlane;fontStyle=0;childLayout=stackLayout;horizontal=1;startSize=30;horizontalStack=0;resizeParent=1;resizeParentMax=0;resizeLast=0;collapsible=1;marginBottom=0;whiteSpace=wrap;html=1;" vertex="1" parent="1">
          <mxGeometry x="580" y="880" width="140" height="60" as="geometry" />
        </mxCell>
        <mxCell id="kn-Yck2s75ZK4QcH-fP1-47" value="collision with obstacle object" style="text;html=1;align=center;verticalAlign=middle;resizable=0;points=[];autosize=1;strokeColor=none;fillColor=none;" vertex="1" parent="1">
          <mxGeometry x="510" y="820" width="170" height="30" as="geometry" />
        </mxCell>
        <mxCell id="kn-Yck2s75ZK4QcH-fP1-50" value="Pacgum" style="swimlane;fontStyle=0;childLayout=stackLayout;horizontal=1;startSize=30;horizontalStack=0;resizeParent=1;resizeParentMax=0;resizeLast=0;collapsible=1;marginBottom=0;whiteSpace=wrap;html=1;" vertex="1" parent="1">
          <mxGeometry x="400" y="970" width="140" height="90" as="geometry" />
        </mxCell>
        <mxCell id="kn-Yck2s75ZK4QcH-fP1-51" value="do: add score depending on pacgum value" style="text;strokeColor=none;fillColor=none;align=left;verticalAlign=middle;spacingLeft=4;spacingRight=4;overflow=hidden;points=[[0,0.5],[1,0.5]];portConstraint=eastwest;rotatable=0;whiteSpace=wrap;html=1;" vertex="1" parent="kn-Yck2s75ZK4QcH-fP1-50">
          <mxGeometry y="30" width="140" height="30" as="geometry" />
        </mxCell>
        <mxCell id="kn-Yck2s75ZK4QcH-fP1-52" value="Pacgum depop" style="text;strokeColor=none;fillColor=none;align=left;verticalAlign=middle;spacingLeft=4;spacingRight=4;overflow=hidden;points=[[0,0.5],[1,0.5]];portConstraint=eastwest;rotatable=0;whiteSpace=wrap;html=1;" vertex="1" parent="kn-Yck2s75ZK4QcH-fP1-50">
          <mxGeometry y="60" width="140" height="30" as="geometry" />
        </mxCell>
        <mxCell id="kn-Yck2s75ZK4QcH-fP1-55" style="edgeStyle=orthogonalEdgeStyle;rounded=0;orthogonalLoop=1;jettySize=auto;html=1;exitX=1;exitY=0.5;exitDx=0;exitDy=0;" edge="1" parent="1" source="kn-Yck2s75ZK4QcH-fP1-52">
          <mxGeometry relative="1" as="geometry">
            <mxPoint x="540" y="538" as="targetPoint" />
            <Array as="points">
              <mxPoint x="540" y="1030" />
              <mxPoint x="800" y="1030" />
              <mxPoint x="800" y="538" />
              <mxPoint x="545" y="538" />
            </Array>
          </mxGeometry>
        </mxCell>
        <mxCell id="kn-Yck2s75ZK4QcH-fP1-56" value="collision with pacgum" style="text;html=1;align=center;verticalAlign=middle;resizable=0;points=[];autosize=1;strokeColor=none;fillColor=none;" vertex="1" parent="1">
          <mxGeometry x="345" y="910" width="140" height="30" as="geometry" />
        </mxCell>
        <mxCell id="kn-Yck2s75ZK4QcH-fP1-62" style="edgeStyle=orthogonalEdgeStyle;rounded=0;orthogonalLoop=1;jettySize=auto;html=1;entryX=0.5;entryY=0;entryDx=0;entryDy=0;" edge="1" parent="1" source="kn-Yck2s75ZK4QcH-fP1-58" target="kn-Yck2s75ZK4QcH-fP1-32">
          <mxGeometry relative="1" as="geometry" />
        </mxCell>
        <mxCell id="kn-Yck2s75ZK4QcH-fP1-58" value="Player moves " style="swimlane;fontStyle=0;childLayout=stackLayout;horizontal=1;startSize=30;horizontalStack=0;resizeParent=1;resizeParentMax=0;resizeLast=0;collapsible=1;marginBottom=0;whiteSpace=wrap;html=1;" vertex="1" parent="1">
          <mxGeometry x="400" y="620" width="140" height="90" as="geometry" />
        </mxCell>
        <mxCell id="kn-Yck2s75ZK4QcH-fP1-59" value="do: spawn and destroy terrain if player moves forward" style="text;strokeColor=none;fillColor=none;align=left;verticalAlign=middle;spacingLeft=4;spacingRight=4;overflow=hidden;points=[[0,0.5],[1,0.5]];portConstraint=eastwest;rotatable=0;whiteSpace=wrap;html=1;" vertex="1" parent="kn-Yck2s75ZK4QcH-fP1-58">
          <mxGeometry y="30" width="140" height="30" as="geometry" />
        </mxCell>
        <mxCell id="kn-Yck2s75ZK4QcH-fP1-60" value="exit: player collide with object" style="text;strokeColor=none;fillColor=none;align=left;verticalAlign=middle;spacingLeft=4;spacingRight=4;overflow=hidden;points=[[0,0.5],[1,0.5]];portConstraint=eastwest;rotatable=0;whiteSpace=wrap;html=1;" vertex="1" parent="kn-Yck2s75ZK4QcH-fP1-58">
          <mxGeometry y="60" width="140" height="30" as="geometry" />
        </mxCell>
      </root>
    </mxGraphModel>
  </diagram>
</mxfile>
